<svg width="33" height="32" viewBox="0 0 582.1 537.9" fill="none" xmlns="http://www.w3.org/2000/svg">
    <linearGradient id="teamfight-tactics-icon" gradientUnits="userSpaceOnUse" x1="313.4" y1="553.1069" x2="313.4" y2="15.293">
        <stop offset="0" style="stop-color:#d5893a"/>
        <stop offset="1" style="stop-color:#fbb63f"/>
    </linearGradient>
    <path style="fill:url(#teamfight-tactics-icon)" d="M381.5,513.8l-0.3,0.2c0.1,0,0.2,0,0.2,0.1l-68,39.1l0,0l0,0L80.6,418.7v-80.1c0,0,0,0,0,0v-0.7c5.9,4.8,14,10.8,25,17.6v0.6c0,0,0,0,0,0v47.5l0,0L267,497.3V464C332,504,381.2,513.7,381.5,513.8z M579.3,404.3c0,0,57.5,104.3-93.3,103.9c-61.3-0.2-119.8-14.4-169.4-32.3c-85.7-30.7-144.7-72.4-144.7-72.4c0.5,0.2,1,0.4,1.5,0.6c-0.8-0.5-1.3-0.9-1.4-1c34.3,13.8,65.9,25.1,95.1,34.3v-20.9c-79.6-26.9-139.9-65.6-180.8-98.1c0.1-0.2,0.2-0.3,0.2-0.5c-18.7-14.9-33.4-28.5-43.9-39C29.2,265.5,22.4,257,22.4,257l22,4.3c-28.7-64,35.6-90.2,36-90.4V149l0,0L313.4,15.3l232.9,135.1v203.8c36.8,24.7,58,59.8,58,59.8L579.3,404.3z M546.3,419.3l-65.1,37.3c-19.7,2.5-43.9,0.8-48.7-0.9l88.7-51v-240L313.4,44.2L105.6,163.6l0,0v97.9c-19.7-20.5-24.9-44.5-24.9-44.5s0,0,0,0c0,0.2,0,0.4,0,0.7V217c-1,0.6-23.8,15.1,10.4,62.1c44.8,61.4,146.1,119.4,176.1,135.7V255.9H166.4l-37.1-82.7h368.1l-37.1,82.7H359.8v205.9c84.2,18.1,145.1,13,171.8,3.4C571.6,450.8,546.3,419.3,546.3,419.3z"/>
</svg>
