<svg width="793" height="799" viewBox="0 0 793 799" fill="none" xmlns="http://www.w3.org/2000/svg">
<path d="M793 0H0V799H793V0Z" fill="#101526"/>
<g clip-path="url(#clip0_6_7055)">
<path d="M395.986 403.694C399.782 405.354 403.045 406.481 405.239 407.133C395.334 397.942 391.538 378.017 386.2 352.696C360.339 232.317 256.836 183.216 188.388 208.538C91.7662 244.533 122.965 358.804 132.1 400.966C133.582 393.435 145.92 336.626 195.269 315.04C233.289 298.377 270.36 312.253 282.341 316.701C282.341 316.701 324.217 332.297 365.202 379.974C368.287 383.532 378.489 395.866 396.046 403.694H395.986Z" fill="#FCC659"/>
<path d="M527.011 272.167C525.172 273.946 520.546 277.86 513.428 279.164C504.887 280.706 498.362 277.445 496.286 276.377C480.983 268.728 478.907 249.337 478.729 247.676C478.611 245.601 478.136 242.695 476.001 241.094C474.103 239.73 472.561 240.501 470.425 239.849C465.265 238.307 463.426 230.242 462.062 224.312C461.232 220.813 460.461 215.595 460.817 209.19C458.741 210.732 454.826 213.816 449.428 213.816H444.09C428.847 249.099 436.498 305.079 455.478 323.462C516.334 383.295 532.349 417.749 517.105 505.928C558.981 472.957 601.568 437.673 603.822 379.441C604.415 362.777 601.627 349.198 596.526 337.694C587.629 317.591 571.733 305.494 549.075 287.882C540.119 280.884 532.29 275.606 526.951 272.108L527.011 272.167Z" fill="#FCC659"/>
<path d="M422.737 479.183C449.369 453.862 450.14 411.7 446.344 377.187C429.617 448.525 388.513 426.999 351.264 394.799C320.065 367.225 293.433 336.507 241.711 341.903C189.219 347.3 162.587 382.524 162.587 433.937C237.144 364.912 256.184 433.937 317.04 446.212C298 446.983 282.045 441.587 269.114 434.708C291.179 460.029 301.856 479.183 323.92 489.916C358.144 506.757 398.478 502.962 422.856 479.183H422.737Z" fill="#FCC659"/>
<path d="M537.628 595.886C534.781 593.87 533.832 591.557 531.578 588.058C528.553 583.433 524.757 577.325 516.335 570.446C513.31 567.362 494.27 556.629 479.797 548.979C534.603 493.771 514.021 388.751 448.598 334.313C478.255 397.171 464.554 526.03 348.951 521.405C348.951 521.405 393.081 575.071 424.28 594.225V654.771C418.941 653.229 411.349 652.458 404.469 656.312C443.26 670.129 412.832 684.658 395.335 697.704C407.494 699.246 421.966 694.62 431.872 686.2C454.708 700.017 474.459 700.017 503.404 693.849C436.439 683.116 441.777 655.482 444.031 602.587C444.031 584.204 453.165 572.699 464.554 562.737C485.076 569.616 503.345 576.554 510.225 588.829C520.902 608.754 502.633 615.692 488.16 625.654C507.971 627.967 516.335 614.15 526.181 616.463C536.857 618.776 543.678 640.242 546.703 648.663C546.703 637.159 546.703 627.196 543.678 618.776C541.424 611.897 539.882 609.584 547.474 610.355C554.295 611.126 561.947 613.439 568.768 614.98C566.633 612.134 562.896 607.983 557.32 604.306C551.389 600.452 545.754 598.851 542.195 598.08C541.009 597.724 539.348 597.131 537.628 595.945V595.886Z" fill="#FCC659"/>
<path d="M472.976 167.088C469.833 169.282 465.088 172.721 459.275 177.05C448.895 184.878 446.463 187.309 441.896 188.08C438.693 188.673 432.347 188.851 423.509 182.387C432.643 201.956 440.769 206.226 446.463 206.581C459.927 207.352 468.647 186.657 486.678 187.665C492.135 187.961 496.346 190.096 498.837 191.638C459.275 189.325 466.867 231.487 474.519 233.8C479.086 235.342 480.628 233.8 482.111 237.655C483.653 242.28 487.449 266.771 500.379 271.396C510.463 274.776 521.91 271.871 525.706 263.924C529.384 256.215 522.8 242.221 514.852 235.342C512.657 233.504 508.031 230.123 506.667 224.253C506.133 221.94 506.251 219.865 506.489 218.501C516.394 218.501 525.528 218.501 532.349 220.813C525.528 210.851 520.19 203.972 515.623 200.889C517.047 197.271 518.826 191.401 518.648 184.047C518.529 179.6 518.47 176.813 516.869 173.966C511.471 164.241 494.685 164.775 491.245 164.834C487.271 164.953 480.628 165.724 472.976 169.46V167.147V167.088Z" fill="#FCC659"/>
<path d="M445.335 179.421C450.377 173.788 459.274 165.427 472.62 159.556C479.737 156.413 486.262 154.812 491.6 153.922L482.881 105L474.518 119.588C475.289 120.062 479.737 123.087 480.508 128.661C481.22 133.879 478.551 139.75 473.45 141.825C466.866 144.553 459.156 139.868 457.139 133.76C455.834 129.847 457.139 126.289 457.791 124.865L440.294 114.903L438.752 134.828C439.641 135.006 445.157 136.429 447.886 141.707C450.436 146.629 449.725 153.448 445.039 157.54C440.946 161.098 434.956 161.513 430.329 158.963C425.821 156.472 423.152 151.491 423.567 146.273H406.841C419.712 157.303 432.524 168.273 445.395 179.303V179.421H445.335Z" fill="#FCC659"/>
<path d="M428.846 149.475C429.262 149.475 432.702 149.06 435.312 151.729C438.04 154.457 437.506 158.074 437.447 158.43C438.159 158.43 440.709 158.43 443.022 156.651C445.751 154.575 446.285 151.67 446.344 151.017C445.573 150.78 443.082 149.891 441.362 147.4C439.226 144.376 439.641 141.173 439.76 140.462C435.964 139.335 432.109 138.149 428.312 137.022C428.49 141.173 428.668 145.384 428.906 149.535L428.846 149.475Z" fill="#FCC659"/>
<path d="M466.274 133.404C468.053 136.606 466.867 139.749 466.748 140.164C467.401 140.342 470.426 141.173 473.51 139.571C475.468 138.504 476.535 136.962 476.95 136.251C476.298 135.836 474.4 134.472 473.569 131.862C472.443 128.364 474.044 125.458 474.341 124.984L464.435 117.334L461.41 129.609C461.944 129.728 464.791 130.558 466.393 133.464H466.274V133.404Z" fill="#FCC659"/>
</g>
<defs>
<clipPath id="clip0_6_7055">
<rect width="484" height="593" fill="white" transform="translate(120 105)"/>
</clipPath>
</defs>
</svg>
